<svg xmlns="http://www.w3.org/2000/svg"  viewBox="0 0 100 100" width="100px" height="100px"><path fill="#6b96d6" d="M50,71.673c-12.683,0-23-10.317-23-23V36.058c0-12.683,10.317-23,23-23s23,10.317,23,23v12.615 C73,61.355,62.683,71.673,50,71.673z M50,22.058c-7.72,0-14,6.28-14,14v12.615c0,7.72,6.28,14,14,14s14-6.28,14-14V36.058 C64,28.338,57.72,22.058,50,22.058z"/><path fill="#fec933" d="M71.714,85.564c-14.413,1.908-29.016,1.908-43.429,0c-4.037-0.572-7.362-4.394-7.626-8.474 c-0.548-8.559-1.095-16.998-1.643-25.306c-0.289-4.325,3.19-8.763,7.617-9.454c15.499-2.211,31.234-2.211,46.733,0 c4.427,0.691,7.906,5.129,7.617,9.454c-0.547,8.308-1.095,16.746-1.643,25.306C79.076,81.169,75.751,84.993,71.714,85.564z"/><path fill="#4a254b" d="M50,59c2.053,0,3.745-1.547,3.974-3.539C54.002,55.218,53.823,55,53.578,55c-1.383,0-5.773,0-7.156,0 c-0.245,0-0.423,0.218-0.396,0.461C46.255,57.453,47.947,59,50,59z"/><circle cx="50" cy="71" r="4" fill="#b55e67"/><path fill="#b55e67" d="M50,68.641l-3.687,8.627c-0.168,0.394,0.033,0.862,0.443,0.986c2.163,0.651,4.326,0.651,6.488,0 c0.41-0.123,0.611-0.592,0.443-0.986L50,68.641z"/><path fill="#4a254b" d="M63.999,54.998c-0.553,0-1-0.447-1-1c0-1.103-0.896-1.999-1.999-1.999s-1.999,0.896-1.999,1.999 c0,0.553-0.447,1-1,1s-1-0.447-1-1c0-2.205,1.794-3.999,3.999-3.999s3.999,1.794,3.999,3.999 C64.999,54.551,64.552,54.998,63.999,54.998z"/><path fill="#4a254b" d="M41.999,54.998c-0.553,0-1-0.447-1-1c0-1.103-0.896-1.999-1.999-1.999s-1.999,0.896-1.999,1.999 c0,0.553-0.447,1-1,1s-1-0.447-1-1c0-2.205,1.794-3.999,3.999-3.999s3.999,1.794,3.999,3.999 C42.999,54.551,42.552,54.998,41.999,54.998z"/></svg>